<svg id="visual" viewBox="0 0 900 600" width="900" height="600" xmlns="http://www.w3.org/2000/svg" xmlns:xlink="http://www.w3.org/1999/xlink" version="1.1"><rect x="0" y="0" width="900" height="600" fill="#002233"></rect><path d="M0 509L21.5 511.5C43 514 86 519 128.8 507.7C171.7 496.3 214.3 468.7 257.2 457C300 445.3 343 449.7 385.8 461.3C428.7 473 471.3 492 514.2 479.3C557 466.7 600 422.3 642.8 407.3C685.7 392.3 728.3 406.7 771.2 413.2C814 419.7 857 418.3 878.5 417.7L900 417L900 601L878.5 601C857 601 814 601 771.2 601C728.3 601 685.7 601 642.8 601C600 601 557 601 514.2 601C471.3 601 428.7 601 385.8 601C343 601 300 601 257.2 601C214.3 601 171.7 601 128.8 601C86 601 43 601 21.5 601L0 601Z" fill="#0066FF" stroke-linecap="round" stroke-linejoin="miter"></path></svg>